<svg width="25" height="25" viewBox="0 0 25 25" fill="none" xmlns="http://www.w3.org/2000/svg">
<path opacity="0.3" fill-rule="evenodd" clip-rule="evenodd" d="M9.37501 11.4583C7.07382 11.4583 5.20834 9.59285 5.20834 7.29167C5.20834 4.99048 7.07382 3.125 9.37501 3.125C11.6762 3.125 13.5417 4.99048 13.5417 7.29167C13.5417 9.59285 11.6762 11.4583 9.37501 11.4583ZM19.75 11.4583C19.1977 11.4583 18.75 11.0106 18.75 10.4583V8.33333H16.625C16.0727 8.33333 15.625 7.88562 15.625 7.33333V7.25C15.625 6.69771 16.0727 6.25 16.625 6.25H18.75V4.125C18.75 3.57272 19.1977 3.125 19.75 3.125H19.8333C20.3856 3.125 20.8333 3.57272 20.8333 4.125V6.25H22.9583C23.5106 6.25 23.9583 6.69772 23.9583 7.25V7.33333C23.9583 7.88562 23.5106 8.33333 22.9583 8.33333H20.8333V10.4583C20.8333 11.0106 20.3856 11.4583 19.8333 11.4583H19.75Z" fill="#B0B7C3"/>
<path d="M0.000678838 21.0409C0.404436 16.0693 4.43949 13.5417 9.35765 13.5417C14.345 13.5417 18.4426 15.9304 18.7478 21.0417C18.76 21.2453 18.7478 21.875 17.9653 21.875C14.1053 21.875 8.3695 21.875 0.757815 21.875C0.496575 21.875 -0.0213143 21.3117 0.000678838 21.0409Z" fill="#B0B7C3"/>
</svg>
