<svg width="18" height="18" viewBox="0 0 18 18" fill="none" xmlns="http://www.w3.org/2000/svg">
<path d="M8.31434 12.0267L7.25368 10.966L9.10984 9.10986C9.54918 8.67052 9.54918 7.95821 9.10984 7.51887C8.6705 7.07953 7.95819 7.07953 7.51885 7.51887L4.8672 10.1705C3.84207 11.1956 3.84207 12.8577 4.8672 13.8828C5.89232 14.908 7.55438 14.908 8.57951 13.8828L13.8828 8.57953C14.9079 7.5544 14.9079 5.89234 13.8828 4.86722L13.6176 4.60205C12.739 3.72337 11.3143 3.72337 10.4357 4.60205L9.375 3.54139C10.8395 2.07692 13.2138 2.07692 14.6783 3.54139L14.9435 3.80656C16.5544 5.41747 16.5544 8.02928 14.9435 9.64019L9.64017 14.9435C8.02925 16.5544 5.41745 16.5544 3.80654 14.9435C2.19562 13.3326 2.19562 10.7208 3.80654 9.10986L6.45819 6.45821C7.48331 5.43308 9.14537 5.43308 10.1705 6.45821C11.1956 7.48333 11.1956 9.14539 10.1705 10.1705L8.31434 12.0267Z" fill="#B0B7C3"/>
</svg>
