<svg width="20" height="20" viewBox="0 0 20 20" fill="none" xmlns="http://www.w3.org/2000/svg">
<g clip-path="url(#clip0_14_17258)">
<path opacity="0.3" d="M1.66663 10.8333C1.66663 10.4167 2.08329 10 2.49996 10C2.91663 10 3.33329 10.4167 3.33329 10.8333C3.33329 11.1111 3.33329 12.5 3.33329 15C3.33329 15.9205 4.07948 16.6667 4.99996 16.6667H15C15.9204 16.6667 16.6666 15.9205 16.6666 15V10.8333C16.6666 10.3731 17.0397 10 17.5 10C17.9602 10 18.3333 10.3731 18.3333 10.8333V15C18.3333 16.8409 16.8409 18.3333 15 18.3333H4.99996C3.15901 18.3333 1.66663 16.8409 1.66663 15C1.66663 12.5 1.66663 11.1111 1.66663 10.8333Z" fill="white"/>
<path opacity="0.3" d="M10.825 2.49993C10.825 2.03969 10.4519 1.6666 9.99166 1.6666C9.53142 1.6666 9.15833 2.03969 9.15833 2.49993V12.4999C9.15833 12.9602 9.53142 13.3333 9.99166 13.3333C10.4519 13.3333 10.825 12.9602 10.825 12.4999V2.49993Z" fill="white"/>
<path d="M6.48814 6.42324C6.1627 6.74868 5.63507 6.74868 5.30963 6.42324C4.98419 6.0978 4.98419 5.57017 5.30963 5.24473L9.4763 1.07806C9.7897 0.764662 10.2936 0.751411 10.623 1.04791L14.7897 4.79791C15.1318 5.10579 15.1595 5.6327 14.8516 5.97479C14.5437 6.31688 14.0168 6.34461 13.6747 6.03673L10.0957 2.81563L6.48814 6.42324Z" fill="white"/>
</g>
<defs>
<clipPath id="clip0_14_17258">
<rect width="20" height="20" fill="white"/>
</clipPath>
</defs>
</svg>
