<svg width="22" height="22" viewBox="0 0 22 22" fill="none" xmlns="http://www.w3.org/2000/svg">
<path opacity="0.3" fill-rule="evenodd" clip-rule="evenodd" d="M7.33333 2.75H5.66666C4.56209 2.75 3.66666 3.64543 3.66666 4.75V19.0833C3.66666 20.1879 4.5621 21.0833 5.66667 21.0833H16.3333C17.4379 21.0833 18.3333 20.1879 18.3333 19.0833V4.75C18.3333 3.64543 17.4379 2.75 16.3333 2.75H14.6667V3.20833C14.6667 3.96772 14.0511 4.58333 13.2917 4.58333H8.70833C7.94894 4.58333 7.33333 3.96772 7.33333 3.20833V2.75Z" fill="#377DFF"/>
<path fill-rule="evenodd" clip-rule="evenodd" d="M11.9167 1.83332L13.25 1.83332C13.5261 1.83332 13.75 2.05718 13.75 2.33332V3.16666C13.75 3.4428 13.5261 3.66666 13.25 3.66666H8.75C8.47386 3.66666 8.25 3.4428 8.25 3.16666V2.33332C8.25 2.05718 8.47386 1.83332 8.75 1.83332L10.0833 1.83332C10.0833 1.32706 10.4937 0.916656 11 0.916656C11.5063 0.916656 11.9167 1.32706 11.9167 1.83332Z" fill="#377DFF"/>
<rect opacity="0.3" x="6.41666" y="9.16666" width="4.58333" height="1.83333" rx="0.916667" fill="#377DFF"/>
<rect opacity="0.3" x="6.41666" y="12.8333" width="8.25" height="1.83333" rx="0.916667" fill="#377DFF"/>
</svg>
