<svg width="13" height="20" viewBox="0 0 13 20" fill="none" xmlns="http://www.w3.org/2000/svg">
<g clip-path="url(#clip0_14_17024)">
<path d="M3.25069 20C5.04433 20 6.50003 18.5067 6.50003 16.6667V13.3333H3.25069C1.45705 13.3333 0.00134277 14.8267 0.00134277 16.6667C0.00134277 18.5067 1.45705 20 3.25069 20Z" fill="#0ACF83"/>
<path d="M0.00134277 10C0.00134277 8.16002 1.45705 6.66669 3.25069 6.66669H6.50003V13.3333H3.25069C1.45705 13.3333 0.00134277 11.84 0.00134277 10Z" fill="#A259FF"/>
<path d="M0.00170898 3.33333C0.00170898 1.49333 1.45742 0 3.25106 0H6.5004V6.66667H3.25106C1.45742 6.66667 0.00170898 5.17333 0.00170898 3.33333Z" fill="#F24E1E"/>
<path d="M6.50098 0H9.75033C11.544 0 12.9997 1.49333 12.9997 3.33333C12.9997 5.17333 11.544 6.66667 9.75033 6.66667H6.50098V0Z" fill="#FF7262"/>
<path d="M12.9997 10C12.9997 11.84 11.544 13.3333 9.75033 13.3333C7.95669 13.3333 6.50098 11.84 6.50098 10C6.50098 8.16002 7.95669 6.66669 9.75033 6.66669C11.544 6.66669 12.9997 8.16002 12.9997 10Z" fill="#1ABCFE"/>
</g>
<defs>
<clipPath id="clip0_14_17024">
<rect width="13" height="20" fill="white"/>
</clipPath>
</defs>
</svg>
