<svg width="36" height="36" viewBox="0 0 36 36" fill="none" xmlns="http://www.w3.org/2000/svg">
<g id="Marker#1">
<path id="Combined Shape" fill-rule="evenodd" clip-rule="evenodd" d="M17.7795 30.6837C15.0494 28.3188 7.5 21.2795 7.5 15.75C7.5 9 12 4.5 18.75 4.5C25.5 4.5 30 10.125 30 15.75C30 20.3834 22.3667 28.0701 19.6755 30.6362C19.1441 31.143 18.3346 31.1645 17.7795 30.6837ZM18.75 18C20.8211 18 22.5 16.3211 22.5 14.25C22.5 12.1789 20.8211 10.5 18.75 10.5C16.6789 10.5 15 12.1789 15 14.25C15 16.3211 16.6789 18 18.75 18Z" fill="#B0B7C3"/>
</g>
</svg>
