<svg width="18" height="20" viewBox="0 0 18 20" fill="none" xmlns="http://www.w3.org/2000/svg">
<path fill-rule="evenodd" clip-rule="evenodd" d="M3.3775 7.87352V5.6242C3.3775 2.51804 5.89554 0 9.0017 0C12.1079 0 14.6259 2.51804 14.6259 5.6242V7.87352H15.7506C16.9928 7.87352 17.9999 8.88057 17.9999 10.1228V16.8717C18.0005 18.1129 16.9939 19.1204 15.7517 19.121L2.24919 19.121C1.00729 19.121 0.000381126 18.1145 -0.00012207 16.8726V10.1237C0.000484725 8.88038 1.00803 7.87382 2.25029 7.87443L3.3775 7.87352ZM9.0017 2.24933C7.13629 2.24933 5.62408 3.76155 5.62408 5.62696V7.87627H12.3729V5.62422C12.3715 3.76143 10.862 2.25142 8.99909 2.24933L9.0017 2.24933Z" fill="#C1C7D0"/>
</svg>
