<svg width="24" height="24" viewBox="0 0 24 24" fill="none" xmlns="http://www.w3.org/2000/svg">
<rect opacity="0.01" x="-0.00012207" width="24" height="24" fill="#C1C7D0"/>
<path fill-rule="evenodd" clip-rule="evenodd" d="M11.4517 21.2291C6.10979 21.2291 2.81947 17.4696 2.81947 12.6952C2.79667 10.1628 3.80282 7.7297 5.60748 5.95307C7.41215 4.17643 9.86071 3.20848 12.3924 3.27091C17.2651 3.27091 20.9015 6.26394 20.9015 10.9888C20.9015 15.2926 18.6262 16.9997 16.35 16.9997C15.3736 17.0508 14.4464 16.5675 13.9291 15.7377C13.1019 16.5075 12.0165 16.94 10.8866 16.9501C8.16527 16.9501 6.78334 15.0208 6.78334 12.6921C6.73704 11.2501 7.28591 9.85264 8.30112 8.82761C9.31634 7.80258 10.7085 7.24029 12.1508 7.27272C12.9459 7.24779 13.7274 7.48231 14.3774 7.94085L14.4765 7.52046H16.8262L15.6649 12.9623C15.4419 14.0508 15.6897 14.9163 16.7534 14.9163C18.0641 14.9163 18.8313 13.8278 18.8313 10.9339C18.8313 7.0753 15.7888 5.2691 12.3753 5.2691C10.3908 5.19802 8.46662 5.95869 7.06712 7.36759C5.66763 8.7765 4.91987 10.7057 5.00424 12.6897C5.00424 16.5979 7.50256 19.1457 11.4602 19.1457C12.9712 19.1573 14.4633 18.8097 15.8135 18.1316L16.6295 20.1352C14.9922 20.8365 13.2328 21.2082 11.4517 21.2291H11.4517ZM11.2783 14.6244C11.9496 14.6504 12.6022 14.3999 13.0837 13.9315L13.8749 10.2704C13.4247 9.81793 12.81 9.56783 12.1717 9.57747C11.4044 9.57036 10.6678 9.87891 10.1346 10.4308C9.60145 10.9827 9.31851 11.7295 9.35211 12.4962C9.34979 13.7837 9.96837 14.6244 11.2791 14.6244H11.2783Z" fill="#C1C7D0"/>
</svg>
