<svg width="30" height="33" viewBox="0 0 30 33" fill="none" xmlns="http://www.w3.org/2000/svg">
<path fill-rule="evenodd" clip-rule="evenodd" d="M16.3456 22.3162H18.2316C19.2732 22.3162 20.1176 23.1606 20.1176 24.2022C20.1176 25.2438 19.2732 26.0882 18.2316 26.0882H1.88603C0.844404 26.0882 0 25.2438 0 24.2022C0 23.1606 0.844404 22.3162 1.88603 22.3162H3.77206L4.47401 15.9987C4.7902 13.1529 7.19557 11 10.0588 11C12.9221 11 15.3274 13.1529 15.6436 15.9987L16.3456 22.3162Z" fill="#B0B7C3"/>
<path opacity="0.3" d="M12.5735 29.8603C12.5735 28.4715 11.4477 27.3456 10.0588 27.3456C8.67 27.3456 7.54413 28.4715 7.54413 29.8603C7.54413 31.2491 8.67 32.375 10.0588 32.375C11.4477 32.375 12.5735 31.2491 12.5735 29.8603Z" fill="#B0B7C3"/>
<circle cx="25" cy="5" r="4.5" fill="#FF5630" stroke="white"/>
</svg>
