<svg width="23" height="9" viewBox="0 0 23 9" fill="none" xmlns="http://www.w3.org/2000/svg">
<path d="M0.860795 9V0.272727H4.13352C4.625 0.272727 5.06676 0.34517 5.45881 0.490057C5.85085 0.634943 6.1733 0.836647 6.42614 1.09517C6.68182 1.35085 6.87642 1.65483 7.00994 2.0071C7.14347 2.35938 7.21023 2.74432 7.21023 3.16193C7.21023 3.58239 7.14205 3.96875 7.00568 4.32102C6.87216 4.6733 6.67614 4.97869 6.41761 5.23722C6.16193 5.4929 5.83665 5.69318 5.44176 5.83807C5.04972 5.98011 4.60653 6.05114 4.11222 6.05114H2.44176V9H0.860795ZM2.44176 4.75142H3.89915C4.46449 4.75142 4.8892 4.60795 5.1733 4.32102C5.45739 4.03409 5.59943 3.64773 5.59943 3.16193C5.59943 2.67614 5.45739 2.29403 5.1733 2.01562C4.8892 1.73438 4.46165 1.59375 3.89062 1.59375H2.44176V4.75142ZM11.5408 9H8.58345V0.272727H11.6005C12.9016 0.272727 13.9229 0.659091 14.6644 1.43182C15.4059 2.20455 15.7766 3.26989 15.7766 4.62784C15.7766 5.99432 15.4016 7.06534 14.6516 7.84091C13.9045 8.61364 12.8675 9 11.5408 9ZM10.1644 7.6321H11.4641C13.2937 7.6321 14.2085 6.63068 14.2085 4.62784C14.2085 3.63352 13.9812 2.88778 13.5266 2.39062C13.0721 1.89063 12.4002 1.64062 11.511 1.64062H10.1644V7.6321ZM17.2788 9V0.272727H22.8697V1.59801H18.8597V3.96733H22.4862V5.29261H18.8597V9H17.2788Z" fill="#FF5630"/>
</svg>
