<svg width="24" height="24" viewBox="0 0 24 24" fill="none" xmlns="http://www.w3.org/2000/svg">
<g id="Picture">
<rect id="Rectangle 25" opacity="0.3" x="2" y="4" width="20" height="16" rx="2" fill="currentColor"/>
<path id="Path" opacity="0.3" fill-rule="evenodd" clip-rule="evenodd" d="M7 17C6.17595 17 5.70557 16.0592 6.2 15.4L10.2 10.0667C10.6 9.53333 11.4 9.53333 11.8 10.0667L15.8 15.4C16.2944 16.0592 15.824 17 15 17H7Z" fill="currentColor"/>
<path id="Path Copy" fill-rule="evenodd" clip-rule="evenodd" d="M13.0806 17C12.2421 17 11.7759 16.0301 12.2998 15.3753L14.2191 12.9761C14.6195 12.4757 15.3805 12.4757 15.7809 12.9761L17.7002 15.3753C18.2241 16.0301 17.7579 17 16.9194 17H13.0806Z" fill="currentColor"/>
<circle id="Oval 76" opacity="0.3" cx="16.5" cy="9.5" r="1.5" fill="currentColor"/>
</g>
</svg>
