<svg width="36" height="36" viewBox="0 0 36 36" fill="none" xmlns="http://www.w3.org/2000/svg">
<g id="Shield-check">
<path id="Path 50" opacity="0.3" fill-rule="evenodd" clip-rule="evenodd" d="M6 6L17.6314 3.81911C17.875 3.77343 18.125 3.77343 18.3686 3.81911L30 6V20.9033C30 24.696 28.0462 28.2211 24.83 30.2313L18.53 34.1687C18.2057 34.3714 17.7943 34.3714 17.47 34.1687L11.17 30.2313C7.95382 28.2211 6 24.696 6 20.9033L6 6Z" fill="#B0B7C3"/>
<path id="check-path" fill-rule="evenodd" clip-rule="evenodd" d="M16.7625 22.125C16.4031 22.125 16.0437 21.9813 15.7562 21.6938L12.8812 18.8188C12.3062 18.2438 12.3062 17.3812 12.8812 16.8062C13.4562 16.2312 14.3906 16.2312 14.8937 16.8062L16.7625 18.675L21.5062 13.9312C22.0812 13.3563 22.9437 13.3563 23.5187 13.9312C24.0937 14.5062 24.0937 15.3688 23.5187 15.9438L17.7687 21.6938C17.4812 21.9813 17.1218 22.125 16.7625 22.125Z" fill="#B0B7C3"/>
</g>
</svg>
