<svg width="38" height="38" viewBox="0 0 38 38" fill="none" xmlns="http://www.w3.org/2000/svg">
<g id="Unlock">
<path id="Combined Shape" fill-rule="evenodd" clip-rule="evenodd" d="M11.0833 15.8333V12.6667C11.0833 8.29441 14.6277 4.75 19 4.75C21.2611 4.75 23.3009 5.69796 24.7435 7.21814L22.9098 9.96857C22.0527 8.72887 20.6212 7.91667 19 7.91667C16.3766 7.91667 14.25 10.0433 14.25 12.6667V15.8333L22.1667 15.8333L23.75 15.8333L26.9167 15.8333H28.5C30.2489 15.8333 31.6667 17.2511 31.6667 19V28.5C31.6667 30.2489 30.2489 31.6667 28.5 31.6667H9.5C7.7511 31.6667 6.33334 30.2489 6.33334 28.5V19C6.33334 17.2511 7.7511 15.8333 9.5 15.8333H11.0833Z" fill="#B0B7C3"/>
</g>
</svg>
