<svg width="24" height="24" viewBox="0 0 24 24" fill="none" xmlns="http://www.w3.org/2000/svg">
<path opacity="0.3" fill-rule="evenodd" clip-rule="evenodd" d="M4 5C4 3.89543 4.89543 3 6 3H18C19.1046 3 20 3.89543 20 5V19C20 20.1046 19.1046 21 18 21H6C4.89543 21 4 20.1046 4 19V5ZM5 5.5C5 5.22386 5.22386 5 5.5 5H6.5C6.77614 5 7 5.22386 7 5.5V6.5C7 6.77614 6.77614 7 6.5 7H5.5C5.22386 7 5 6.77614 5 6.5V5.5ZM17.5 5C17.2239 5 17 5.22386 17 5.5V6.5C17 6.77614 17.2239 7 17.5 7H18.5C18.7761 7 19 6.77614 19 6.5V5.5C19 5.22386 18.7761 5 18.5 5H17.5ZM5 9.5C5 9.22386 5.22386 9 5.5 9H6.5C6.77614 9 7 9.22386 7 9.5V10.5C7 10.7761 6.77614 11 6.5 11H5.5C5.22386 11 5 10.7761 5 10.5V9.5ZM17.5 9C17.2239 9 17 9.22386 17 9.5V10.5C17 10.7761 17.2239 11 17.5 11H18.5C18.7761 11 19 10.7761 19 10.5V9.5C19 9.22386 18.7761 9 18.5 9H17.5ZM5 13.5C5 13.2239 5.22386 13 5.5 13H6.5C6.77614 13 7 13.2239 7 13.5V14.5C7 14.7761 6.77614 15 6.5 15H5.5C5.22386 15 5 14.7761 5 14.5V13.5ZM17.5 13C17.2239 13 17 13.2239 17 13.5V14.5C17 14.7761 17.2239 15 17.5 15H18.5C18.7761 15 19 14.7761 19 14.5V13.5C19 13.2239 18.7761 13 18.5 13H17.5ZM17 17.5C17 17.2239 17.2239 17 17.5 17H18.5C18.7761 17 19 17.2239 19 17.5V18.5C19 18.7761 18.7761 19 18.5 19H17.5C17.2239 19 17 18.7761 17 18.5V17.5ZM5.5 17C5.22386 17 5 17.2239 5 17.5V18.5C5 18.7761 5.22386 19 5.5 19H6.5C6.77614 19 7 18.7761 7 18.5V17.5C7 17.2239 6.77614 17 6.5 17H5.5Z" fill="#B0B7C3"/>
<path fill-rule="evenodd" clip-rule="evenodd" d="M10.57 14.1595C10.57 14.5615 11.0203 14.7991 11.3522 14.5723L13.9569 12.7918C14.2468 12.5936 14.2474 12.1661 13.9581 11.9671L11.3534 10.1754C11.0216 9.94721 10.57 10.1847 10.57 10.5874V14.1595Z" fill="#B0B7C3"/>
</svg>
