<svg width="24" height="24" viewBox="0 0 24 24" fill="none" xmlns="http://www.w3.org/2000/svg">
<g id="Youtube">
<path id="Combined Shape" opacity="0.3" fill-rule="evenodd" clip-rule="evenodd" d="M1.26086 6.60176C1.40031 5.10785 2.66872 4 4.16912 4H19.9679C21.4081 4 22.6363 5.02593 22.7792 6.45907C22.8964 7.63563 23 9.17084 23 10.9231C23 12.9073 22.8672 14.892 22.7321 16.3974C22.598 17.8918 21.3313 19 19.8308 19H4.16912C2.66871 19 1.40031 17.8922 1.26086 16.3982C1.12823 14.9774 1 13.1714 1 11.5C1 9.82857 1.12823 8.02262 1.26086 6.60176Z" fill="#B0B7C3"/>
<path id="Path 10" fill-rule="evenodd" clip-rule="evenodd" d="M10.4 14.3925C10.4 14.7945 10.8503 15.0321 11.1822 14.8053L15.5856 11.7953C15.8756 11.5971 15.8762 11.1696 15.5868 10.9706L11.1834 7.94157C10.8517 7.71337 10.4 7.95087 10.4 8.35352V14.3925Z" fill="#B0B7C3"/>
</g>
</svg>
